<mxfile host="app.diagrams.net" modified="2023-03-30T13:55:02.141Z" agent="5.0 (Macintosh)" etag="UR73yek5wmbL7fSHJnyV" version="21.0.6" type="github">
  <diagram name="Page-1" id="MGEyhEqYbqKT3gjWiVQs">
    <mxGraphModel dx="1074" dy="959" grid="1" gridSize="10" guides="1" tooltips="1" connect="1" arrows="1" fold="1" page="1" pageScale="1" pageWidth="850" pageHeight="1100" math="0" shadow="0">
      <root>
        <mxCell id="0" />
        <mxCell id="1" parent="0" />
        <mxCell id="4aELnDUOcG5_jyZ6R_Zi-1" value="Under Investigation" style="verticalAlign=bottom;endArrow=block;shadow=0;strokeWidth=1;exitX=1;exitY=0.5;exitDx=0;exitDy=0;" edge="1" parent="1" source="4aELnDUOcG5_jyZ6R_Zi-2">
          <mxGeometry x="-0.0323" y="-20" relative="1" as="geometry">
            <mxPoint x="1540" y="910" as="sourcePoint" />
            <mxPoint x="1820" y="1110" as="targetPoint" />
            <mxPoint as="offset" />
            <Array as="points">
              <mxPoint x="1630" y="910" />
            </Array>
          </mxGeometry>
        </mxCell>
        <mxCell id="4aELnDUOcG5_jyZ6R_Zi-2" value="&lt;font style=&quot;font-size: 16px;&quot;&gt;Transcriptomics&lt;br&gt;&lt;/font&gt;" style="rounded=0;whiteSpace=wrap;html=1;fillColor=#e1d5e7;strokeColor=#9673a6;" vertex="1" parent="1">
          <mxGeometry x="1240" y="870" width="250" height="80" as="geometry" />
        </mxCell>
        <mxCell id="4aELnDUOcG5_jyZ6R_Zi-3" value="&lt;font style=&quot;font-size: 16px;&quot;&gt;Chemical Compound&lt;br&gt;&lt;/font&gt;" style="rounded=0;whiteSpace=wrap;html=1;fillColor=#fff2cc;strokeColor=#d6b656;" vertex="1" parent="1">
          <mxGeometry x="1238" y="1000" width="252" height="80" as="geometry" />
        </mxCell>
        <mxCell id="4aELnDUOcG5_jyZ6R_Zi-4" style="edgeStyle=orthogonalEdgeStyle;rounded=0;orthogonalLoop=1;jettySize=auto;html=1;entryX=0;entryY=0.5;entryDx=0;entryDy=0;" edge="1" parent="1" source="4aELnDUOcG5_jyZ6R_Zi-6" target="4aELnDUOcG5_jyZ6R_Zi-8">
          <mxGeometry relative="1" as="geometry">
            <mxPoint x="1680" y="1160" as="targetPoint" />
          </mxGeometry>
        </mxCell>
        <mxCell id="4aELnDUOcG5_jyZ6R_Zi-5" value="EfficientNet" style="edgeLabel;html=1;align=center;verticalAlign=middle;resizable=0;points=[];" vertex="1" connectable="0" parent="4aELnDUOcG5_jyZ6R_Zi-4">
          <mxGeometry x="0.0307" y="-1" relative="1" as="geometry">
            <mxPoint as="offset" />
          </mxGeometry>
        </mxCell>
        <mxCell id="4aELnDUOcG5_jyZ6R_Zi-6" value="&lt;font style=&quot;font-size: 16px;&quot;&gt;Cell Painting&lt;br&gt;&lt;/font&gt;" style="rounded=0;whiteSpace=wrap;html=1;fillColor=#ffe6cc;strokeColor=#d79b00;" vertex="1" parent="1">
          <mxGeometry x="1240" y="1120" width="250" height="80" as="geometry" />
        </mxCell>
        <mxCell id="4aELnDUOcG5_jyZ6R_Zi-7" value="Multi-Layer Perceptron&#xa;" style="verticalAlign=bottom;endArrow=block;shadow=0;strokeWidth=1;exitX=1;exitY=0.5;exitDx=0;exitDy=0;entryX=0.5;entryY=0;entryDx=0;entryDy=0;" edge="1" parent="1" source="4aELnDUOcG5_jyZ6R_Zi-3" target="4aELnDUOcG5_jyZ6R_Zi-8">
          <mxGeometry x="0.1123" y="-2" relative="1" as="geometry">
            <mxPoint x="1528" y="1157" as="sourcePoint" />
            <mxPoint x="1718" y="1157.5" as="targetPoint" />
            <mxPoint as="offset" />
            <Array as="points">
              <mxPoint x="1660" y="1040" />
            </Array>
          </mxGeometry>
        </mxCell>
        <mxCell id="4aELnDUOcG5_jyZ6R_Zi-8" value="Joint Model" style="whiteSpace=wrap;html=1;aspect=fixed;fillColor=#ffcccc;strokeColor=#36393d;" vertex="1" parent="1">
          <mxGeometry x="1783" y="1120" width="82" height="80" as="geometry" />
        </mxCell>
        <mxCell id="4aELnDUOcG5_jyZ6R_Zi-9" value="&lt;div&gt;Unknown Compound 1&lt;/div&gt;&lt;div&gt;Unknown Compound 2 Unknown Compound 3&lt;br&gt;&lt;/div&gt;" style="rounded=0;whiteSpace=wrap;html=1;" vertex="1" parent="1">
          <mxGeometry x="2123" y="970" width="142" height="80" as="geometry" />
        </mxCell>
        <mxCell id="4aELnDUOcG5_jyZ6R_Zi-10" value="" style="html=1;shadow=0;dashed=0;align=center;verticalAlign=middle;shape=mxgraph.arrows2.bendArrow;dy=15;dx=38;notch=0;arrowHead=48;rounded=1;fontSize=12;rotation=90;fillColor=#f5f5f5;strokeColor=#666666;gradientColor=#b3b3b3;" vertex="1" parent="1">
          <mxGeometry x="2093" y="1170" width="132" height="130" as="geometry" />
        </mxCell>
        <mxCell id="4aELnDUOcG5_jyZ6R_Zi-11" value="" style="html=1;shadow=0;dashed=0;align=center;verticalAlign=middle;shape=mxgraph.arrows2.bendArrow;dy=15;dx=38;notch=0;arrowHead=48;rounded=1;fontSize=12;rotation=-180;fillColor=#f5f5f5;strokeColor=#666666;gradientColor=#b3b3b3;" vertex="1" parent="1">
          <mxGeometry x="2093" y="1050" width="122" height="120" as="geometry" />
        </mxCell>
        <mxCell id="4aELnDUOcG5_jyZ6R_Zi-12" value="&lt;div&gt;MoA 1&lt;/div&gt;&lt;div&gt;MoA 2&lt;/div&gt;&lt;div&gt;MoA 3&lt;br&gt;&lt;/div&gt;" style="rounded=0;whiteSpace=wrap;html=1;" vertex="1" parent="1">
          <mxGeometry x="2153" y="1300" width="102" height="70" as="geometry" />
        </mxCell>
        <mxCell id="4aELnDUOcG5_jyZ6R_Zi-13" value="&lt;div&gt;&lt;b&gt;Predictions:&lt;/b&gt;&lt;/div&gt;&lt;div&gt;Mechanism of Action for Compound&lt;/div&gt;&lt;div&gt;&lt;br&gt;&lt;/div&gt;" style="text;html=1;align=center;verticalAlign=middle;resizable=0;points=[];autosize=1;strokeColor=none;fillColor=none;fontSize=12;" vertex="1" parent="1">
          <mxGeometry x="2123" y="1370" width="210" height="60" as="geometry" />
        </mxCell>
        <mxCell id="4aELnDUOcG5_jyZ6R_Zi-14" value="" style="endArrow=classic;html=1;rounded=0;entryX=0;entryY=0.5;entryDx=0;entryDy=0;" edge="1" parent="1">
          <mxGeometry width="50" height="50" relative="1" as="geometry">
            <mxPoint x="1873" y="1159.5" as="sourcePoint" />
            <mxPoint x="1933" y="1159.5" as="targetPoint" />
          </mxGeometry>
        </mxCell>
        <mxCell id="4aELnDUOcG5_jyZ6R_Zi-15" value="Feature Extraction" style="edgeLabel;html=1;align=center;verticalAlign=middle;resizable=0;points=[];" vertex="1" connectable="0" parent="4aELnDUOcG5_jyZ6R_Zi-14">
          <mxGeometry x="-0.3333" y="-1" relative="1" as="geometry">
            <mxPoint x="20" y="-20" as="offset" />
          </mxGeometry>
        </mxCell>
        <mxCell id="4aELnDUOcG5_jyZ6R_Zi-16" value="Fine Tuning" style="endArrow=classic;html=1;rounded=0;entryX=0;entryY=0.5;entryDx=0;entryDy=0;" edge="1" parent="1">
          <mxGeometry y="-20" width="50" height="50" relative="1" as="geometry">
            <mxPoint x="1943" y="1159.5" as="sourcePoint" />
            <mxPoint x="2003" y="1159.5" as="targetPoint" />
            <mxPoint y="1" as="offset" />
          </mxGeometry>
        </mxCell>
        <mxCell id="4aELnDUOcG5_jyZ6R_Zi-17" value="Final Joint Model" style="whiteSpace=wrap;html=1;aspect=fixed;fillColor=#dae8fc;strokeColor=#6c8ebf;" vertex="1" parent="1">
          <mxGeometry x="2013" y="1120" width="82" height="80" as="geometry" />
        </mxCell>
        <mxCell id="4aELnDUOcG5_jyZ6R_Zi-18" value="&lt;font style=&quot;font-size: 16px;&quot;&gt;Input&lt;/font&gt;" style="rounded=0;whiteSpace=wrap;html=1;fontStyle=1;fillColor=#bac8d3;strokeColor=#23445d;" vertex="1" parent="1">
          <mxGeometry x="1238" y="740" width="252" height="60" as="geometry" />
        </mxCell>
        <mxCell id="4aELnDUOcG5_jyZ6R_Zi-19" value="&lt;b&gt;&lt;font style=&quot;font-size: 16px;&quot;&gt;Machine Learning Framework&lt;/font&gt;&lt;/b&gt;" style="rounded=0;whiteSpace=wrap;html=1;fillColor=#fad9d5;strokeColor=#ae4132;" vertex="1" parent="1">
          <mxGeometry x="1523" y="740" width="252" height="60" as="geometry" />
        </mxCell>
        <mxCell id="4aELnDUOcG5_jyZ6R_Zi-20" value="&lt;b&gt;&lt;font style=&quot;font-size: 16px;&quot;&gt;Prediction&lt;/font&gt;&lt;/b&gt;" style="rounded=0;whiteSpace=wrap;html=1;fillColor=#fad7ac;strokeColor=#b46504;" vertex="1" parent="1">
          <mxGeometry x="2068" y="740" width="272" height="60" as="geometry" />
        </mxCell>
        <mxCell id="4aELnDUOcG5_jyZ6R_Zi-21" value="&lt;b&gt;&lt;font style=&quot;font-size: 16px;&quot;&gt;Joint Model Optimization&lt;/font&gt;&lt;/b&gt;" style="rounded=0;whiteSpace=wrap;html=1;fillColor=#b0e3e6;strokeColor=#0e8088;" vertex="1" parent="1">
          <mxGeometry x="1783" y="740" width="282" height="60" as="geometry" />
        </mxCell>
        <mxCell id="4aELnDUOcG5_jyZ6R_Zi-22" value="&lt;font style=&quot;font-size: 16px;&quot;&gt;Brightfield&lt;/font&gt;" style="rounded=0;whiteSpace=wrap;html=1;fillColor=#d5e8d4;strokeColor=#82b366;dashed=1;" vertex="1" parent="1">
          <mxGeometry x="1240" y="1230" width="252" height="80" as="geometry" />
        </mxCell>
        <mxCell id="4aELnDUOcG5_jyZ6R_Zi-23" value="&lt;div&gt;&lt;font style=&quot;font-size: 16px;&quot;&gt;Binding Affinity (PTP)&lt;/font&gt;&lt;/div&gt;&lt;div style=&quot;&quot;&gt;&lt;font style=&quot;font-size: 12px;&quot;&gt;Johnathan Alvarsson &lt;br&gt;&lt;/font&gt;&lt;/div&gt;" style="rounded=0;whiteSpace=wrap;html=1;fillColor=#f8cecc;strokeColor=#b85450;dashed=1;" vertex="1" parent="1">
          <mxGeometry x="1240" y="1350" width="252" height="80" as="geometry" />
        </mxCell>
        <mxCell id="4aELnDUOcG5_jyZ6R_Zi-24" value="" style="endArrow=classic;html=1;rounded=1;exitX=1;exitY=0.5;exitDx=0;exitDy=0;entryX=0.598;entryY=1.013;entryDx=0;entryDy=0;entryPerimeter=0;dashed=1;" edge="1" parent="1" source="4aELnDUOcG5_jyZ6R_Zi-22" target="4aELnDUOcG5_jyZ6R_Zi-8">
          <mxGeometry width="50" height="50" relative="1" as="geometry">
            <mxPoint x="1620" y="1190" as="sourcePoint" />
            <mxPoint x="1670" y="1140" as="targetPoint" />
            <Array as="points">
              <mxPoint x="1650" y="1270" />
            </Array>
          </mxGeometry>
        </mxCell>
        <mxCell id="4aELnDUOcG5_jyZ6R_Zi-25" value="Under Investigation" style="edgeLabel;html=1;align=center;verticalAlign=middle;resizable=0;points=[];" vertex="1" connectable="0" parent="4aELnDUOcG5_jyZ6R_Zi-24">
          <mxGeometry x="-0.3024" y="-1" relative="1" as="geometry">
            <mxPoint as="offset" />
          </mxGeometry>
        </mxCell>
        <mxCell id="4aELnDUOcG5_jyZ6R_Zi-26" value="" style="endArrow=classic;html=1;rounded=1;exitX=1;exitY=0.5;exitDx=0;exitDy=0;dashed=1;" edge="1" parent="1" source="4aELnDUOcG5_jyZ6R_Zi-23">
          <mxGeometry width="50" height="50" relative="1" as="geometry">
            <mxPoint x="1620" y="1190" as="sourcePoint" />
            <mxPoint x="1830" y="1200" as="targetPoint" />
            <Array as="points">
              <mxPoint x="1640" y="1390" />
            </Array>
          </mxGeometry>
        </mxCell>
        <mxCell id="4aELnDUOcG5_jyZ6R_Zi-27" value="Under Investigation" style="edgeLabel;html=1;align=center;verticalAlign=middle;resizable=0;points=[];" vertex="1" connectable="0" parent="4aELnDUOcG5_jyZ6R_Zi-26">
          <mxGeometry x="-0.6016" y="-2" relative="1" as="geometry">
            <mxPoint as="offset" />
          </mxGeometry>
        </mxCell>
        <mxCell id="4aELnDUOcG5_jyZ6R_Zi-28" value="&lt;div&gt;&lt;b&gt;Given&lt;/b&gt;&lt;/div&gt;&lt;div&gt;1. Compound representation&lt;/div&gt;&lt;div&gt;2. Gene expression&amp;nbsp; of compound induced perturbation&lt;/div&gt;&lt;div&gt;3. image-based profile of compound induced perturbation&lt;br&gt;&lt;/div&gt;" style="text;html=1;align=center;verticalAlign=middle;resizable=0;points=[];autosize=1;strokeColor=none;fillColor=none;fontSize=12;" vertex="1" parent="1">
          <mxGeometry x="2028" y="904" width="330" height="70" as="geometry" />
        </mxCell>
      </root>
    </mxGraphModel>
  </diagram>
</mxfile>
